<?xml version="1.0" encoding="utf-8"?>
<!-- Generator: Adobe Illustrator 21.1.0, SVG Export Plug-In . SVG Version: 6.00 Build 0)  -->
<svg version="1.1" id="Laag_1" xmlns="http://www.w3.org/2000/svg" xmlns:xlink="http://www.w3.org/1999/xlink" x="0px" y="0px"
	 viewBox="0 0 141.7 141.7" style="enable-background:new 0 0 141.7 141.7;" xml:space="preserve">
<style type="text/css">
	.st0{fill:#FFFFFF;}
	.st1{fill:#FEEB1A;}
</style>
<g>
	<path d="M54.6,123.9c1.6-6.8,2.5-13.2,4.6-19.1c2-5.5,1.1-9.3-3.5-12.9c-3.7-2.9-6.8-6.5-10-9.9c-1.3-1.4-2.4-1.5-4.2-1
		c-7.8,2.1-15.6,3.9-24,6c0.5-2,0.9-3.4,1.3-4.8c2.5-9.2,5.9-18,10-26.5C35.2,42.4,45.9,36.3,60.3,37c5.6,0.3,9.2-1.4,12.8-5.6
		C83.9,18.4,97.4,9,113.7,4c8-2.4,16.2-4,24.6-4c0.8,0,1.6,0,2.4,0.1c0.2,0,0.3,0.1,0.6,0.3c0.5,8.9-1,17.5-3.5,26.1
		C132.9,43.6,123,57.6,109.5,69c-3.6,3.1-5.7,6.1-5,11.2c0.5,3.3-0.2,6.7-0.7,10c-1.3,8.6-5.9,15-13.2,19.6
		C79.6,116.6,67.6,120.5,54.6,123.9z M67.8,88.6c0.3-0.2,0.9-0.4,1.4-0.8c11.6-9.4,23.3-18.6,34.7-28.1c13.6-11.4,22-26,25.5-43.4
		c0.3-1.6,0.5-3.2,0.8-5c-17.4,2.7-32.5,9.4-44.3,22.2C78,41.9,70.5,50.8,63.1,59.7c-3.7,4.5-7,9.3-10.3,13.8
		C57.9,78.7,62.8,83.6,67.8,88.6z M69.3,107.7c0.2,0.3,0.5,0.6,0.7,1c5.7-3.2,11.7-6.1,17.2-9.7c5.5-3.6,6.2-9.6,6.7-15.8
		c-7.4,5.4-14.4,10.5-21.5,15.7c-0.5,0.3-0.8,1-0.9,1.5C70.7,102.8,70,105.2,69.3,107.7z M33.2,72.3c4.6-1.4,8.9-1.4,11.5-5.9
		c2.3-4,5.3-7.5,8.1-11.2c1.8-2.5,3.7-4.9,5.9-7.7c-5.5,0.7-10.6,1-14.3,4.8C39,57.7,36.2,64.7,33.2,72.3z"/>
	<path d="M0.3,141.7c1.2-5.6,2.2-10.8,3.6-15.9c1.9-7.3,4.5-14.4,8.9-20.6c2.9-4.1,6.5-7.4,11.7-7.9c1.4-0.2,2.8-0.1,4.2,0.2
		c9.5,1.7,17.5,13.3,15.1,21.8c-1.5,5.1-5.2,8.4-9.4,11.1c-8.1,5-17,7.8-26.2,9.8C5.7,140.7,3.3,141.1,0.3,141.7z M15.1,126.3
		c0.2,0.3,0.5,0.6,0.7,1c4.4-2.1,9-3.9,13.2-6.5c5.8-3.5,5.9-6.6,0.6-11c-2.8-2.3-4.6-2.2-7,0.6C18.8,115.1,16.9,120.7,15.1,126.3z"
		/>
	<path class="st0" d="M67.8,88.6c-5-5-9.9-9.9-15.1-15c3.4-4.5,6.6-9.4,10.3-13.8c7.4-8.9,14.9-17.8,22.8-26.3
		c11.8-12.7,26.8-19.4,44.3-22.2c-0.3,1.8-0.5,3.4-0.8,5c-3.5,17.4-11.9,32-25.5,43.4c-11.4,9.6-23.1,18.8-34.7,28.1
		C68.7,88.2,68.1,88.4,67.8,88.6z M101.6,48.6c5,0,8.8-3.6,8.8-8.6c0.1-5.1-3.7-9-8.7-9c-5,0-8.9,3.9-8.8,8.9
		C92.9,44.9,96.6,48.6,101.6,48.6z"/>
	<path class="st0" d="M69.3,107.7c0.7-2.4,1.4-4.9,2.2-7.3c0.2-0.6,0.5-1.2,0.9-1.5c7-5.2,14.1-10.4,21.5-15.7
		c-0.5,6.2-1.2,12.3-6.7,15.8c-5.5,3.6-11.4,6.5-17.2,9.7C69.7,108.3,69.5,108,69.3,107.7z"/>
	<path class="st0" d="M33.2,72.3c3-7.6,5.8-14.5,11.1-20c3.7-3.8,8.8-4.1,14.3-4.8c-2.1,2.8-4,5.2-5.9,7.7
		c-2.7,3.7-5.8,7.2-8.1,11.2C42.1,70.9,37.7,70.8,33.2,72.3z"/>
	<path class="st0" d="M15.1,126.3c1.8-5.6,3.7-11.2,7.5-15.9c2.3-2.9,4.1-3,7-0.6c5.3,4.3,5.2,7.5-0.6,11c-4.2,2.5-8.8,4.3-13.2,6.5
		C15.5,126.9,15.3,126.6,15.1,126.3z"/>
	<path d="M101.6,48.6c-5,0-8.7-3.7-8.8-8.6c0-5,3.8-9,8.8-8.9c5,0,8.8,3.9,8.7,9C110.4,44.9,106.6,48.6,101.6,48.6z"/>
	<path class="st1" d="M15.1,126.3c0.2,0.3,0.5,0.6,0.7,1c4.4-2.1,9-3.9,13.2-6.5c5.8-3.5,5.9-6.6,0.6-11c-2.8-2.3-4.6-2.2-7,0.6
		C18.8,115.1,16.9,120.7,15.1,126.3z"/>
</g>
</svg>
